<?xml version="1.0" standalone="no"?><!DOCTYPE svg PUBLIC "-//W3C//DTD SVG 1.1//EN" "http://www.w3.org/Graphics/SVG/1.1/DTD/svg11.dtd"><svg t="1563501038161" class="icon" viewBox="0 0 1024 1024" version="1.1" xmlns="http://www.w3.org/2000/svg" p-id="3513" data-spm-anchor-id="a313x.7781069.0.i33" xmlns:xlink="http://www.w3.org/1999/xlink" width="200" height="200"><defs><style type="text/css"></style></defs><path d="M512.149985 512.049995m-511.950005 0a511.950005 511.950005 0 1 0 1023.90001 0 511.950005 511.950005 0 1 0-1023.90001 0Z" fill="#1890ff" p-id="3514" data-spm-anchor-id="a313x.7781069.0.i24" class=""></path><path d="M647.436774 266.174006l-96.290597-57.494385 3.699639 199.180549L517.949419 493.951763l-237.87677 16.598379L524.948735 644.937018l11.998829 108.089444-116.988576 7.899229-37.996289 7.199297-12.998731 27.497315 321.568597 196.380822c194.780978-72.39293 333.567425-259.974612 333.567425-479.95313 0-32.396836-2.999707-64.093741-8.79914-94.790743L750.726687 270.373596l-103.289913-4.19959z" fill="#1890ff" p-id="3515" data-spm-anchor-id="a313x.7781069.0.i26" class=""></path><path d="M805.721316 335.66722l-54.994629-65.293624c-2.599746-3.099697-6.499365-4.899522-10.498975-4.899521H554.745826v-47.395372c0-7.599258-6.199395-13.698662-13.698663-13.698662h-57.694365c-7.599258 0-13.698662 6.199395-13.698663 13.698662v122.98799H284.87218c-4.19959 0-8.199199 1.899814-10.798945 5.199492l-56.294502 71.393028c-3.899619 4.999512-3.899619 11.998828 0 16.99834l56.294502 71.393028c2.599746 3.299678 6.599356 5.199492 10.798945 5.199492h184.781955v199.080559h-89.991211c-7.599258 0-13.698662 6.199395-13.698663 13.698662V781.92364c0 7.599258 6.199395 13.698662 13.698663 13.698663h263.77424c7.599258 0 13.698662-6.199395 13.698663-13.698663v-57.694366c0-7.599258-6.199395-13.698662-13.698663-13.698662h-88.591348v-104.989747h105.989649c3.399668 0 6.699346-1.299873 9.299092-3.599648l50.595059-46.39547c2.799727-2.599746 4.499561-6.299385 4.499561-10.099013s-1.599844-7.499268-4.499561-10.099014L670.034567 488.952251c-2.499756-2.299775-5.799434-3.599648-9.299092-3.599649h-105.989649v-61.793965h185.481886c4.0996 0 7.899229-1.799824 10.498975-4.899522l54.994629-65.293623c4.29958-5.099502 4.29958-12.59877 0-17.698272z" fill="#d81e06" p-id="3516" data-spm-anchor-id="a313x.7781069.0.i25" class=""></path><path d="M291.471536 483.952739L245.975979 426.258373l45.495557-57.694366h178.082609V483.952739z" fill="#ffffff" p-id="3517" data-spm-anchor-id="a313x.7781069.0.i29" class="selected"></path><path d="M393.361586 737.927937h236.276926v30.197051H393.361586zM497.05146 231.877356h30.197051v478.653256h-30.197051z" fill="#ffffff" p-id="3518" data-spm-anchor-id="a313x.7781069.0.i32" class="selected"></path><path d="M655.435993 512.749927l35.596523 32.696807-35.596523 32.596816H554.745826v-65.293623zM733.828337 395.961332H554.745826V292.97139h179.082511l43.395762 51.494971z" fill="#ffffff" p-id="3519" data-spm-anchor-id="a313x.7781069.0.i31" class="selected"></path></svg>